# AST/ASF file generated using VICON BodyLanguage
# -----------------------------------------------
:version 1.10
:name VICON
:units
  mass 1.0
  length 0.45
  angle deg
:documentation
   .ast/.asf automatically generated from VICON data using
   VICON BodyBuilder and BodyLanguage model FoxedUp or BRILLIANT.MOD
:root
   order TX TY TZ RX RY RZ
   axis XYZ
   position 0 0 0  
   orientation 0 0 0 
:bonedata
  begin
     id 1 
     name lhipjoint
     direction 0.822369 -0.411937 0.392449 
     length 3.8167 
     axis 0 0 0  XYZ
  end
  begin
     id 2 
     name lfemur
     direction 0.34202 -0.939693 0  
     length 6.16791  
     axis 0 0 20  XYZ
    dof rx ry rz
    limits (-160.0 20.0)
           (-70.0 70.0)
           (-60.0 70.0)
  end
  begin
     id 3 
     name ltibia
     direction 0.34202 -0.939693 0   
     length 7.07101   
     axis 0 0 20   XYZ
    dof rx
    limits (-10.0 170.0)
  end
  begin
     id 4 
     name lfoot
     direction 0.028254 -0.0776273 0.996582   
     length 1.66799   
     axis -90 7.62852e-016 20   XYZ
    dof rx rz
    limits (-45.0 90.0)
           (-70.0 20.0)
  end
  begin
     id 5 
     name ltoes
     direction 1.53483e-011 -4.21688e-011 1   
     length 0.851674   
     axis -90 7.62852e-016 20   XYZ
    dof rx
    limits (-90.0 20.0)
  end
  begin
     id 6 
     name rhipjoint
     direction -0.822466 -0.411836 0.392353   
     length 3.81764  
     axis 0 0 0  XYZ 
  end
  begin
     id 7 
     name rfemur
     direction -0.34202 -0.939693 0   
     length 6.28636   
     axis 0 0 -20   XYZ
    dof rx ry rz
    limits (-160.0 20.0)
           (-70.0 70.0)
           (-70.0 60.0)
  end
  begin
     id 8 
     name rtibia
     direction -0.34202 -0.939693 0   
     length 6.85621   
     axis 0 0 -20   XYZ
    dof rx
    limits (-10.0 170.0)
 end
 begin
     id 9 
     name rfoot
     direction -0.0553036 -0.151945 0.98684   
     length 1.57293  
     axis -90 -7.62852e-016 -20   XYZ
    dof rx rz
    limits (-45.0 90.0)
           (-20.0 70.0)
  end
  begin
     id 10 
     name rtoes
     direction -1.53592e-011 -4.21964e-011 1   
     length 0.802812   
     axis -90 -7.62852e-016 -20   XYZ
    dof rx
    limits (-90.0 20.0)
  end
  begin
     id 11 
     name lowerback
     direction 0.00654913 0.996475 -0.0836396   
     length 1.97212   
     axis 0 0 0   XYZ
    dof rx ry rz
    limits (-20.0 45.0)
           (-30.0 30.0)
           (-30.0 30.0)
  end
  begin
     id 12 
     name upperback
     direction 0.0111875 0.994527 0.103877   
     length 1.89704   
     axis 0 0 0   XYZ
    dof rx ry rz
    limits (-20.0 45.0)
           (-30.0 30.0)
           (-30.0 30.0)
  end
  begin
     id 13 
     name thorax
     direction 0.00473652 0.989004 0.147814   
     length 1.94516   
     axis 0 0 0   XYZ
    dof rx ry rz
    limits (-20.0 45.0)
           (-30.0 30.0)
           (-30.0 30.0)
  end
  begin
     id 14 
     name lowerneck
     direction -0.00925808 0.999011 0.0434791   
     length 1.81771   
     axis 0 0 0   XYZ
    dof rx ry rz
    limits (-20.0 45.0)
           (-30.0 30.0)
           (-30.0 30.0)
  end
  begin
     id 15 
     name upperneck
     direction 0.00451595 0.964412 -0.264365   
     length 1.80434   
     axis 0 0 0   XYZ
    dof rx ry rz
    limits (-20.0 45.0)
           (-30.0 30.0)
           (-30.0 30.0)
  end
  begin
     id 16
     name head
     direction -0.00110849 0.995756 -0.0920241  
     length 1.84006  
     axis 0 0 0   XYZ
    dof rx ry rz
    limits (-20.0 45.0)
           (-30.0 30.0)
           (-30.0 30.0)
  end
  begin
     id 17 
     name lclavicle
     direction 0.921253 0.385213 0.0538957  
     length 3.67415  
     axis 0 0 0   XYZ
    dof ry rz
    limits (-20.0 10.0)
           (0.0 20.0)
  end
  begin
     id 18 
     name lhumerus
     direction 1 -4.48961e-011 6.73441e-028   
     length 4.32712   
     axis 180 -30 -90   XYZ
    dof rx ry rz
    limits (-60.0 90.0)
           (-90.0 90.0)
           (-90.0 90.0)
  end
  begin
     id 19
     name lradius
     direction 1 -4.48985e-011 -9.53507e-028   
     length 3.28587   
     axis 180 -30 -90   XYZ
    dof rx
    limits (-10.0 170.0)
  end
  begin
     id 20
     name lwrist
     direction 1 -4.48951e-011 -4.67472e-027   
     length 1.64293   
     axis 1.65735e-015 90 90   XYZ
    dof ry
    limits (-180.0 0.0)
 end
  begin
     id 21 
     name lhand
     direction 1 -4.48946e-011 -9.34945e-027   
     length 0.433158   
     axis 5.96574e-015 90 90   XYZ
    dof rx rz
    limits (-90.0 90.0)
           (-45.0 45.0)
  end
  begin
     id 22 
     name lfingers
     direction 1 -4.48882e-011 -1.86989e-026   
     length 0.349224   
     axis 1.19315e-014 90 90   XYZ
    dof rx
    limits (0.0 90.0)
  end
  begin
     id 23
     name lthumb
     direction 0.707107 -6.3493e-011 0.707107   
     length 0.501417   
     axis -90 45 2.85299e-015   XYZ
    dof rx rz
    limits (-45.0 45.0)
           (-45.0 45.0)
  end
  begin
     id 24 
     name rclavicle
     direction -0.884378 0.46502 -0.0403866   
     length 3.50218  
     axis 0 0 0   XYZ 
    dof ry rz
    limits (-10.0 20.0)
           (-20.0 0.0)
  end
  begin
     id 25 
     name rhumerus
     direction -1 -4.48964e-011 1.58188e-027  
     length 4.29104   
     axis 180 30 90   XYZ
    dof rx ry rz
    limits (-90.0 60.0)
           (-90.0 90.0)
           (-90.0 90.0)
  end
  begin
     id 26 
     name rradius
     direction -1 -4.48978e-011 -1.9722e-027   
     length 3.2272   
     axis 180 30 90   XYZ
    dof rx
    limits (-10.0 170.0)
  end
  begin
     id 27 
     name rwrist
     direction -1 -4.48969e-011 -4.67472e-027   
     length 1.6136   
     axis 1.65735e-015 -90 -90   XYZ
    dof ry
    limits (-180.0 0.0)
  end
  begin
     id 28
     name rhand
     direction -1 -4.48846e-011 -9.34945e-027   
     length 0.543623   
     axis 5.96574e-015 -90 -90   XYZ
    dof rx rz
    limits (-90.0 90.0)
           (-45.0 45.0)
  end
  begin
     id 29
     name rfingers
     direction -1 -4.49074e-011 -1.86989e-026   
     length 0.438283   
     axis 1.19315e-014 -90 -90   XYZ
    dof rx
    limits (0.0 90.0)
  end
  begin
     id 30
     name rthumb
     direction -0.707107 -6.34834e-011 0.707107   
     length 0.629289   
     axis -90 -45 -2.85299e-015   XYZ
    dof rx rz
    limits (-45.0 45.0)
           (-45.0 45.0)
  end
:hierarchy
  begin
    root lhipjoint rhipjoint lowerback
    lhipjoint lfemur
    lfemur ltibia
    ltibia lfoot
    lfoot ltoes
    rhipjoint rfemur
    rfemur rtibia
    rtibia rfoot
    rfoot rtoes
    lowerback upperback
    upperback thorax
    thorax lowerneck lclavicle rclavicle
    lowerneck upperneck
    upperneck head
    lclavicle lhumerus
    lhumerus lradius
    lradius lwrist
    lwrist lhand lthumb
    lhand lfingers
    rclavicle rhumerus
    rhumerus rradius
    rradius rwrist
    rwrist rhand rthumb
    rhand rfingers
  end

#!OML:ASF H:\GeneralSubjects\Female5\Project 1\Capture day 1\Session 1\Female5.ASF
:FULLY-SPECIFIED
:DEGREES
107
root 4.24624 15.3648 3.57144 -191.727 -63.5463 206.564
lowerback 12.9093 -2.3713 0.192118
upperback -9.91409 -2.67359 7.35473
thorax -18.5121 -0.722894 9.45344
lowerneck -11.7227 2.85521 4.78567
upperneck 24.077 3.72154 -5.62344
head 9.74298 1.27796 -2.37672
rclavicle 9.22361e-014 -6.16232e-014
rhumerus -42.4202 18.4051 -41.6539
rradius 54.2096
rwrist -36.1423
rhand -40.7464 -21.2036
rfingers 7.12502
rthumb -13.6872 -50.7335
lclavicle 9.22361e-014 -6.16232e-014
lhumerus -10.2871 14.9628 78.6675
lradius 71.1973
lwrist 1.60569
lhand -47.1991 48.0629
lfingers 7.12502
lthumb -19.8987 77.0642
rfemur -20.8532 10.5507 30.5529
rtibia 36.2008
rfoot -10.23 12.7805
rtoes -20.7115
lfemur -38.7122 -8.72272 -4.67889
ltibia 49.7824
lfoot -20.5431 -18.3785
ltoes -8.52295
108
root 4.17532 15.3673 3.73202 -184.695 -59.6304 199.399
lowerback 12.7924 -0.970506 0.129551
upperback -9.85796 -0.893657 5.78138
thorax -18.6256 -0.0367612 7.05846
lowerneck -11.708 3.36992 5.61219
upperneck 23.7875 4.3468 -5.88486
head 9.70259 1.62737 -2.52723
rclavicle -9.51682e-015 3.22031e-014
rhumerus -37.9834 18.4387 -43.543
rradius 56.1603
rwrist -34.9367
rhand -41.1682 -21.1434
rfingers 7.12502
rthumb -14.0937 -50.6454
lclavicle -9.51682e-015 3.22031e-014
lhumerus -14.4377 18.0095 74.0126
lradius 72.8535
lwrist 3.36815
lhand -47.2586 48.2696
lfingers 7.12502
lthumb -19.9559 77.265
rfemur -23.4934 9.77318 27.9249
rtibia 38.712
rfoot -10.3489 10.875
rtoes -20.8109
lfemur -37.7138 -11.9861 -5.77067
ltibia 50.732
lfoot -18.9864 -18.4095
ltoes -9.38628
109
root 4.08862 15.3563 3.89525 -179.587 -55.2614 194.065
lowerback 12.9211 0.45886 0.622243
upperback -9.80897 0.994001 3.96647
thorax -18.785 0.593282 4.06583
lowerneck -11.7861 3.73994 6.23901
upperneck 23.5575 4.70608 -5.72801
head 9.67456 1.87963 -2.52812
rclavicle 8.67384e-014 -6.36111e-015
rhumerus -33.4678 18.0723 -45.778
rradius 57.6734
rwrist -33.7804
rhand -41.4876 -20.965
rfingers 7.12502
rthumb -14.4014 -50.4454
lclavicle 8.67384e-014 -6.36111e-015
lhumerus -18.9149 20.7811 68.4061
lradius 74.5717
lwrist 4.85364
lhand -46.9702 46.9051
lfingers 7.12502
lthumb -19.6787 75.9291
rfemur -25.6714 8.34094 25.7234
rtibia 40.5126
rfoot -11.1772 8.2025
rtoes -21.976
lfemur -36.8015 -15.2675 -6.74903
ltibia 51.9692
lfoot -17.2121 -18.7533
ltoes -10.4137
110
root 3.98529 15.3255 4.04734 -175.574 -50.6359 189.593
lowerback 13.3019 1.90367 1.1401
upperback -9.80287 2.85229 1.92569
thorax -18.9786 1.17151 0.823463
lowerneck -11.8981 3.95566 6.56663
upperneck 23.3731 4.8547 -5.35432
head 9.64218 2.02762 -2.42841
rclavicle 2.92835e-014 1.47101e-014
rhumerus -29.1073 17.7752 -48.2171
rradius 58.9801
rwrist -32.6576
rhand -41.1443 -19.8405
rfingers 7.12502
rthumb -14.0707 -49.3441
lclavicle 2.92835e-014 1.47101e-014
lhumerus -23.6209 23.1466 62.0551
lradius 76.2111
lwrist 6.33029
lhand -45.9271 45.0878
lfingers 7.12502
lthumb -18.6756 74.2113
rfemur -27.6634 6.26087 23.7762
rtibia 42.363
rfoot -13.0435 4.24187
rtoes -25.1146
lfemur -35.7609 -18.1925 -8.47653
ltibia 53.2136
lfoot -15.2417 -19.645
ltoes -11.6584
111
root 3.86928 15.2761 4.17528 -172.178 -45.746 185.554
lowerback 13.6807 3.38986 1.26174
upperback -9.87082 4.61395 -0.241362
thorax -19.1074 1.7256 -2.31381
lowerneck -12.2805 4.25198 7.13884
upperneck 23.6047 5.04205 -4.98721
head 9.82031 2.20285 -2.36887
rclavicle 3.2141e-014 2.90226e-014
rhumerus -25.001 17.9389 -50.6171
rradius 60.1618
rwrist -31.2841
rhand -40.6868 -18.3991
rfingers 7.12502
rthumb -13.6298 -47.9329
lclavicle 3.2141e-014 2.90226e-014
lhumerus -28.4405 25.1642 55.2041
lradius 77.533
lwrist 7.79662
lhand -47.3939 47.0363
lfingers 7.12502
lthumb -20.0859 76.0181
rfemur -29.6149 3.81039 21.9852
rtibia 44.0319
rfoot -15.8407 -0.84477
rtoes -28.1728
lfemur -34.5134 -20.7735 -10.819
ltibia 54.2998
lfoot -13.6605 -21.0049
ltoes -12.3184
112
root 3.74943 15.2106 4.28237 -169.663 -40.7598 182.461
lowerback 13.9828 4.86278 1.33573
upperback -9.99107 6.31503 -2.27689
thorax -19.1217 2.2549 -5.25641
lowerneck -12.13 4.51944 7.44224
upperneck 23.1201 5.24846 -4.48159
head 9.63217 2.39522 -2.21136
rclavicle -4.49502e-014 -1.19271e-015
rhumerus -20.685 18.0759 -52.7353
rradius 60.7676
rwrist -29.2989
rhand -40.2789 -16.8641
rfingers 7.12502
rthumb -13.2366 -46.4239
lclavicle -4.49502e-014 -1.19271e-015
lhumerus -33.2838 26.898 48.0991
lradius 78.4102
lwrist 9.07227
lhand -47.543 48.0322
lfingers 7.12502
lthumb -20.2292 76.9989
rfemur -31.3672 1.38839 20.7568
rtibia 44.9081
rfoot -19.5364 -4.72551
rtoes -23.1253
lfemur -33.1334 -22.245 -13.3562
ltibia 54.8544
lfoot -12.1771 -21.7702
ltoes -9.07538
113
root 3.62659 15.138 4.37023 -167.981 -35.9461 180.217
lowerback 14.3627 6.28033 1.55903
upperback -10.1303 7.97924 -4.10043
thorax -19.0841 2.75957 -8.04648
lowerneck -11.9936 4.69245 7.26086
upperneck 22.764 5.35584 -3.68758
head 9.46207 2.52423 -1.88986
rclavicle -1.63997e-014 -5.00937e-014
rhumerus -16.2625 17.9265 -54.5094
rradius 60.9146
rwrist -27.1969
rhand -39.727 -15.8219
rfingers 7.12502
rthumb -12.7046 -45.4155
lclavicle -1.63997e-014 -5.00937e-014
lhumerus -37.8794 28.3894 41.0469
lradius 78.6546
lwrist 9.85986
lhand -47.5413 47.9247
lfingers 7.12502
lthumb -20.2276 76.8915
rfemur -32.5077 -0.603002 19.9474
rtibia 44.5347
rfoot -24.2378 -7.22599
rtoes -13.7989
lfemur -31.378 -22.7082 -16.0239
ltibia 54.6982
lfoot -12.3727 -23.9678
ltoes -17.0363
114
root 3.5329 15.056 4.44848 -166.65 -31.6871 178.319
lowerback 14.9957 7.57655 1.45384
upperback -10.3093 9.41318 -5.68557
thorax -19.2715 3.194 -10.3931
lowerneck -12.0095 4.78094 6.80607
upperneck 22.5911 5.36509 -2.77501
head 9.36591 2.59167 -1.4964
rclavicle 7.10158e-014 -3.57812e-014
rhumerus -12.3508 17.964 -55.7657
rradius 61.3645
rwrist -25.5455
rhand -39.5375 -15.4076
rfingers 7.12502
rthumb -12.5219 -45.0124
lclavicle 7.10158e-014 -3.57812e-014
lhumerus -42.0293 29.6556 34.3564
lradius 78.1553
lwrist 10.2646
lhand -47.8228 46.9481
lfingers 7.12502
lthumb -20.4981 75.886
rfemur -33.3799 -1.92063 19.1131
rtibia 43.2504
rfoot -28.504 -9.89469
rtoes -11.2238
lfemur -29.6065 -21.4867 -19.2542
ltibia 53.9263
lfoot -14.697 -26.3253
ltoes -17.8236
115
root 3.44451 14.9683 4.51176 -165.947 -27.9912 176.792
lowerback 15.7808 8.72676 1.3623
upperback -10.5689 10.6477 -7.1686
thorax -19.1841 3.64302 -12.2226
lowerneck -11.96 4.75832 6.28627
upperneck 22.1393 5.29033 -2.03197
head 9.15793 2.60082 -1.16505
rclavicle -5.32246e-014 5.1684e-014
rhumerus -9.00949 18.0625 -56.4644
rradius 62.0906
rwrist -24.3592
rhand -39.1492 -13.2018
rfingers 7.12502
rthumb -12.1475 -42.8291
lclavicle -5.32246e-014 5.1684e-014
lhumerus -45.7557 30.4016 28.1857
lradius 77.0779
lwrist 10.6904
lhand -48.1953 47.2791
lfingers 7.12502
lthumb -20.8561 76.1781
rfemur -33.9975 -2.24464 17.9033
rtibia 42.0483
rfoot -31.0694 -11.3527
rtoes -8.01823
lfemur -27.4771 -20.1689 -22.1816
ltibia 52.4404
lfoot -17.4919 -28.3574
ltoes -14.6635
116
root 3.37086 14.8787 4.56835 -165.548 -25.0731 175.535
lowerback 16.6981 9.64605 1.22682
upperback -10.5302 11.6379 -8.19552
thorax -19.3278 3.95861 -13.7792
lowerneck -11.8922 4.57323 5.70465
upperneck 21.6343 5.08836 -1.6316
head 8.93151 2.50924 -0.959188
rclavicle 1.55947e-013 -9.46215e-014
rhumerus -5.90171 18.0303 -56.6325
rradius 62.7171
rwrist -23.8085
rhand -40.3632 -14.339
rfingers 7.12502
rthumb -13.3179 -43.8934
lclavicle 1.55947e-013 -9.46215e-014
lhumerus -49.0122 30.4558 22.7373
lradius 75.7439
lwrist 11.5245
lhand -48.1725 48.4975
lfingers 7.12502
lthumb -20.8341 77.3989
rfemur -35.0777 -2.11898 16.3747
rtibia 42.1353
rfoot -29.555 -13.6365
rtoes -16.2104
lfemur -25.5693 -18.7277 -24.7506
ltibia 50.8003
lfoot -22.7042 -28.2634
ltoes -7.79589
117
root 3.31192 14.7872 4.62209 -165.539 -22.8796 174.646
lowerback 17.7356 10.2896 1.18767
upperback -10.3595 12.3667 -8.80729
thorax -19.4685 4.19525 -14.8629
lowerneck -12.1249 4.63398 5.32248
upperneck 21.1086 5.31309 -1.79596
head 8.79353 2.57916 -0.921394
rclavicle -4.37823e-014 1.05753e-013
rhumerus -2.91179 17.9934 -56.3025
rradius 63.182
rwrist -23.6495
rhand -40.8194 -13.959
rfingers 7.12502
rthumb -13.7576 -43.4842
lclavicle -4.37823e-014 1.05753e-013
lhumerus -51.9425 30.3687 17.9206
lradius 73.9701
lwrist 12.6257
lhand -48.6228 46.2218
lfingers 7.12502
lthumb -21.2668 75.075
rfemur -36.4544 -2.29847 15.0974
rtibia 43.5089
rfoot -28.8212 -13.3496
rtoes -18.9141
lfemur -24.006 -16.5329 -27.0684
ltibia 49.3988
lfoot -27.041 -26.8741
ltoes -13.039
118
root 3.27238 14.6977 4.67119 -165.862 -21.4274 174.403
lowerback 18.7706 10.6505 1.44413
upperback -10.18 12.8995 -8.99855
thorax -19.6463 4.35268 -15.576
lowerneck -12.2083 4.78009 5.0203
upperneck 20.5794 5.68217 -2.15687
head 8.64172 2.70342 -0.949855
rclavicle -6.37602e-014 4.92986e-014
rhumerus -0.436581 17.9096 -55.8156
rradius 63.7011
rwrist -23.4662
rhand -41.2235 -15.0639
rfingers 7.12502
rthumb -14.147 -44.5623
lclavicle -6.37602e-014 4.92986e-014
lhumerus -54.4562 29.5428 14.5374
lradius 73.0467
lwrist 13.2014
lhand -48.8136 51.668
lfingers 7.12502
lthumb -21.45 80.5005
rfemur -37.7506 -2.70787 14.6539
rtibia 45.3177
rfoot -28.3746 -11.8838
rtoes -18.7213
lfemur -23.1024 -15.2116 -28.0143
ltibia 49.0583
lfoot -31.0242 -24.9484
ltoes -19.2518
119
root 3.25586 14.6155 4.71219 -166.134 -20.8975 174.693
lowerback 19.4314 10.7126 1.84387
upperback -10.0604 13.1502 -8.88763
thorax -19.7645 4.41285 -15.863
lowerneck -12.162 4.9392 4.99535
upperneck 20.1548 6.02747 -2.63434
head 8.51627 2.82465 -1.06817
rclavicle -4.61677e-014 3.97569e-015
rhumerus 1.23809 17.5682 -55.3085
rradius 63.9887
rwrist -22.7396
rhand -40.9897 -14.569
rfingers 7.12502
rthumb -13.9217 -44.0829
lclavicle -4.61677e-014 3.97569e-015
lhumerus -56.445 29.2755 11.9608
lradius 72.748
lwrist 13.8083
lhand -49.8692 51.71
lfingers 7.12502
lthumb -22.4635 80.4236
rfemur -38.8289 -3.1998 14.9532
rtibia 46.9119
rfoot -28.35 -10.169
rtoes -16.4399
lfemur -23.3528 -14.4775 -27.9841
ltibia 49.9098
lfoot -33.0732 -24.0035
ltoes -22.1448
120
root 3.24936 14.5345 4.74063 -166.213 -21.3476 175.145
lowerback 19.4506 10.5117 2.23304
upperback -9.91197 13.0776 -8.63517
thorax -19.567 4.4022 -15.7207
lowerneck -12.1267 4.96256 5.16031
upperneck 20.0676 6.09903 -2.96382
head 8.49957 2.83944 -1.19817
rclavicle -5.58088e-014 -3.10104e-014
rhumerus 1.87188 16.9304 -54.8185
rradius 64.51
rwrist -21.7656
rhand -40.6748 -12.4374
rfingers 7.12502
rthumb -13.6182 -41.972
lclavicle -5.58088e-014 -3.10104e-014
lhumerus -57.6325 30.09 10.0487
lradius 72.9224
lwrist 12.9276
lhand -49.033 52.8214
lfingers 7.12502
lthumb -21.6607 81.6297
rfemur -39.5074 -3.67415 15.3383
rtibia 48.1623
rfoot -28.864 -8.73043
rtoes -13.8058
lfemur -24.6663 -14.3506 -27.5189
ltibia 51.9211
lfoot -34.4437 -23.1633
ltoes -25.2215
